#!OML:ASF X:\für Bonn\!DataBase\2005_08_10_Bjorn_Final\c3d\bjorn.ASF
:FULLY-SPECIFIED
:DEGREES
323
root 14.4292 19.1503 0.468194 168.87 -95.0486 -165.736
lowerback 21.5584 2.56299 4.18294
upperback 18.3612 2.14068 -1.26494
thorax 8.74064 0.950891 -4.11838
lowerneck -5.76299 -4.3804 8.75571
upperneck 2.94114 -6.3979 -2.51267
head 1.56052 -3.14835 -2.50571
rclavicle 1.43125e-014 -2.70347e-014
rhumerus -8.22451 14.5205 -72.3419
rradius 33.0036
rwrist -5.80634
rhand -6.5824 8.52631
rfingers 7.12502
rthumb 19.2724 -20.5387
lclavicle 1.43125e-014 -2.70347e-014
lhumerus -17.5043 -19.671 80.6766
lradius 36.2011
lwrist -5.53725
lhand -31.1034 -13.1204
lfingers 7.12502
lthumb -4.38303 16.8143
rfemur -18.8923 -4.84909 15.0443
rtibia 35.0487
rfoot -14.4175 10.9317
rtoes 0.72755
lfemur -13.8756 0.879131 -14.4006
ltibia 30.859
lfoot -12.903 14.1529
ltoes -21.3975
324
root 14.366 19.1486 0.448567 169.021 -94.8373 -166.184
lowerback 20.8159 2.5726 4.03097
upperback 18.0849 2.18144 -1.2991
thorax 8.76398 0.973039 -4.05343
lowerneck -5.59324 -4.36068 8.74811
upperneck 3.17454 -6.34892 -2.66191
head 1.60521 -3.12033 -2.55317
rclavicle 2.54444e-014 -1.41137e-014
rhumerus -9.07372 14.457 -72.6711
rradius 33.4388
rwrist -5.95636
rhand -6.37661 8.3822
rfingers 7.12502
rthumb 19.4703 -20.663
lclavicle 2.54444e-014 -1.41137e-014
lhumerus -17.8759 -19.722 80.7366
lradius 36.1396
lwrist -5.65674
lhand -31.0248 -12.8466
lfingers 7.12502
lthumb -4.30709 17.0896
rfemur -18.3251 -4.83795 15.1866
rtibia 34.9428
rfoot -14.5445 11.1949
rtoes 0.763477
lfemur -13.1747 0.986422 -14.221
ltibia 30.6245
lfoot -13.0077 14.2209
ltoes -21.5288
325
root 14.3025 19.146 0.428376 169.076 -94.6595 -166.496
lowerback 20.0666 2.57269 3.88121
upperback 17.7802 2.217 -1.35187
thorax 8.76186 0.995259 -4.0086
lowerneck -5.37728 -4.34994 8.79714
upperneck 3.41131 -6.30999 -2.84622
head 1.63964 -3.09739 -2.62115
rclavicle -2.42517e-014 8.15017e-015
rhumerus -9.91465 14.2704 -73.0353
rradius 33.7898
rwrist -5.99848
rhand -6.20307 8.34588
rfingers 7.12502
rthumb 19.6371 -20.6823
lclavicle -2.42517e-014 8.15017e-015
lhumerus -18.2628 -19.8816 80.8012
lradius 36.0501
lwrist -5.77995
lhand -30.9969 -12.5231
lfingers 7.12502
lthumb -4.2801 17.4136
rfemur -17.7968 -4.85972 15.3049
rtibia 34.8412
rfoot -14.657 11.4664
rtoes 1.03638
lfemur -12.5162 1.04897 -14.062
ltibia 30.391
lfoot -13.1309 14.3148
ltoes -21.6304
326
root 14.2388 19.1433 0.407988 168.874 -94.4661 -166.568
lowerback 19.3614 2.57646 3.70925
upperback 17.4768 2.2541 -1.4018
thorax 8.74267 1.01456 -3.9491
lowerneck -5.15461 -4.32684 8.82038
upperneck 3.68716 -6.25432 -2.97599
head 1.68912 -3.06421 -2.66704
rclavicle -2.52457e-014 -3.18055e-015
rhumerus -10.6982 14.0748 -73.3907
rradius 34.0985
rwrist -6.02368
rhand -6.0698 8.26291
rfingers 7.12502
rthumb 19.7653 -20.7522
lclavicle -2.52457e-014 -3.18055e-015
lhumerus -18.6695 -20.0104 80.8879
lradius 35.9957
lwrist -5.95494
lhand -30.9998 -12.1209
lfingers 7.12502
lthumb -4.28293 17.8158
rfemur -17.2515 -4.83904 15.4011
rtibia 34.7479
rfoot -14.7796 11.7151
rtoes 1.27806
lfemur -11.8313 1.13886 -13.917
ltibia 30.1387
lfoot -13.2462 14.3781
ltoes -21.7314
327
root 14.1746 19.1404 0.387102 168.99 -94.2865 -166.93
lowerback 18.6349 2.56357 3.54115
upperback 17.1743 2.27017 -1.43948
thorax 8.73798 1.02328 -3.87502
lowerneck -4.93051 -4.2755 8.76082
upperneck 4.02198 -6.16058 -2.99303
head 1.76562 -3.00916 -2.66137
rclavicle -4.49253e-014 1.68967e-014
rhumerus -11.4444 13.8339 -73.7231
rradius 34.3895
rwrist -5.99501
rhand -5.92485 8.23123
rfingers 7.12502
rthumb 19.9046 -20.7694
lclavicle -4.49253e-014 1.68967e-014
lhumerus -19.0494 -20.0607 80.9763
lradius 35.9053
lwrist -6.20491
lhand -30.9844 -11.7868
lfingers 7.12502
lthumb -4.26809 18.1502
rfemur -16.7396 -4.87702 15.5229
rtibia 34.6581
rfoot -14.9108 11.9795
rtoes 1.30595
lfemur -11.1789 1.23429 -13.7532
ltibia 29.8946
lfoot -13.3443 14.4415
ltoes -21.8411
328
root 14.1111 19.1385 0.366482 168.667 -94.1257 -166.85
lowerback 17.9235 2.55352 3.34205
upperback 16.8696 2.28754 -1.47439
thorax 8.72585 1.02919 -3.78087
lowerneck -4.64877 -4.22365 8.66543
upperneck 4.34475 -6.06245 -2.94361
head 1.83075 -2.95131 -2.62444
rclavicle 2.18663e-014 -3.85642e-014
rhumerus -12.1467 13.6448 -74.0229
rradius 34.6613
rwrist -6.06302
rhand -5.82167 8.19434
rfingers 7.12502
rthumb 20.0038 -20.796
lclavicle 2.18663e-014 -3.85642e-014
lhumerus -19.4167 -20.1098 81.0913
lradius 35.7859
lwrist -6.41622
lhand -30.9292 -11.61
lfingers 7.12502
lthumb -4.21476 18.3281
rfemur -16.2316 -4.91627 15.596
rtibia 34.5695
rfoot -15.0035 12.2719
rtoes 1.5286
lfemur -10.5304 1.29129 -13.6346
ltibia 29.6357
lfoot -13.4144 14.5442
ltoes -22.1072
329
root 14.047 19.1333 0.345065 168.826 -93.9461 -167.256
lowerback 17.2274 2.53845 3.17047
upperback 16.5659 2.30108 -1.50102
thorax 8.71304 1.03521 -3.69303
lowerneck -4.35242 -4.16243 8.55192
upperneck 4.66113 -5.95221 -2.86732
head 1.89297 -2.88771 -2.5745
rclavicle 3.05134e-014 -1.55052e-014
rhumerus -12.7802 13.4504 -74.3078
rradius 34.8842
rwrist -6.16084
rhand -5.73055 8.17063
rfingers 7.12502
rthumb 20.0914 -20.8105
lclavicle 3.05134e-014 -1.55052e-014
lhumerus -19.8119 -20.1584 81.2019
lradius 35.7234
lwrist -6.6033
lhand -30.7765 -11.416
lfingers 7.12502
lthumb -4.06734 18.5249
rfemur -15.7127 -4.95359 15.715
rtibia 34.4717
rfoot -15.1221 12.5371
rtoes 1.67372
lfemur -9.87702 1.38211 -13.4622
ltibia 29.3853
lfoot -13.5367 14.5772
ltoes -22.0628
330
root 13.983 19.1312 0.32383 168.816 -93.7906 -167.464
lowerback 16.5378 2.50655 2.98376
upperback 16.2298 2.29666 -1.53561
thorax 8.66051 1.03179 -3.60382
lowerneck -3.97599 -4.10496 8.47596
upperneck 4.92161 -5.84108 -2.8355
head 1.92007 -2.82585 -2.54187
rclavicle -2.55438e-014 -2.0773e-014
rhumerus -13.4306 13.254 -74.589
rradius 35.103
rwrist -6.20447
rhand -5.71153 8.22279
rfingers 7.12502
rthumb 20.1096 -20.7564
lclavicle -2.55438e-014 -2.0773e-014
lhumerus -20.275 -20.2146 81.3373
lradius 35.6617
lwrist -6.70267
lhand -30.6598 -11.341
lfingers 7.12502
lthumb -3.95466 18.602
rfemur -15.2228 -5.00232 15.8076
rtibia 34.3687
rfoot -15.2329 12.8052
rtoes 1.82321
lfemur -9.25488 1.48495 -13.3166
ltibia 29.1155
lfoot -13.5939 14.6228
ltoes -22.2408
331
root 13.9168 19.129 0.30332 168.874 -93.6444 -167.747
lowerback 15.8552 2.47234 2.83044
upperback 15.8987 2.29244 -1.58169
thorax 8.61863 1.03286 -3.54609
lowerneck -3.57712 -4.05552 8.38582
upperneck 5.15784 -5.74143 -2.75867
head 1.93579 -2.76981 -2.49062
rclavicle 1.5704e-014 1.41137e-014
rhumerus -14.112 13.0857 -74.8803
rradius 35.3866
rwrist -6.30014
rhand -5.76846 8.28807
rfingers 7.12502
rthumb 20.0549 -20.6969
lclavicle 1.5704e-014 1.41137e-014
lhumerus -20.7554 -20.3382 81.4676
lradius 35.6398
lwrist -6.74553
lhand -30.5026 -11.2206
lfingers 7.12502
lthumb -3.80283 18.7253
rfemur -14.7091 -5.09736 15.8963
rtibia 34.2552
rfoot -15.3499 13.0938
rtoes 1.89023
lfemur -8.61269 1.56646 -13.1729
ltibia 28.8465
lfoot -13.676 14.6712
ltoes -22.4196
332
root 13.8515 19.1263 0.282443 169.005 -93.5161 -168.094
lowerback 15.1896 2.42677 2.66125
upperback 15.563 2.27174 -1.61246
thorax 8.56342 1.02284 -3.46224
lowerneck -3.1927 -3.99194 8.30273
upperneck 5.39055 -5.62449 -2.71413
head 1.95292 -2.70649 -2.45192
rclavicle -2.85939e-014 2.54693e-016
rhumerus -14.7785 12.7865 -75.1449
rradius 35.6774
rwrist -6.32901
rhand -5.78959 8.40414
rfingers 7.12502
rthumb 20.0346 -20.583
lclavicle -2.85939e-014 2.54693e-016
lhumerus -21.2614 -20.3908 81.6406
lradius 35.6066
lwrist -6.87646
lhand -30.4082 -11.2513
lfingers 7.12502
lthumb -3.71167 18.6961
rfemur -14.1954 -5.19334 15.9789
rtibia 34.1354
rfoot -15.4351 13.3802
rtoes 2.20357
lfemur -7.9736 1.63219 -13.0241
ltibia 28.5552
lfoot -13.7707 14.6895
ltoes -22.3307
333
root 13.7861 19.1236 0.261252 169.194 -93.3961 -168.461
lowerback 14.5044 2.36894 2.49675
upperback 15.2166 2.2373 -1.65455
thorax 8.5108 1.00784 -3.39205
lowerneck -2.82291 -3.93001 8.23999
upperneck 5.63105 -5.51316 -2.67708
head 1.97421 -2.64609 -2.42045
rclavicle 2.83765e-014 -2.98922e-014
rhumerus -15.4541 12.5575 -75.4325
rradius 35.9932
rwrist -6.35612
rhand -5.84255 8.5136
rfingers 7.12502
rthumb 19.9837 -20.4788
lclavicle 2.83765e-014 -2.98922e-014
lhumerus -21.7482 -20.3768 81.7893
lradius 35.5209
lwrist -7.14682
lhand -30.3197 -11.3553
lfingers 7.12502
lthumb -3.62623 18.5936
rfemur -13.7245 -5.31702 16.064
rtibia 34.0053
rfoot -15.5296 13.6835
rtoes 2.32345
lfemur -7.38475 1.71448 -12.8811
ltibia 28.2619
lfoot -13.8262 14.7274
ltoes -22.4844
334
root 13.7215 19.121 0.240381 169.394 -93.2763 -168.849
lowerback 13.8812 2.31227 2.33208
upperback 14.8422 2.20648 -1.68709
thorax 8.39619 0.993548 -3.31371
lowerneck -2.3975 -3.87375 8.18173
upperneck 5.88106 -5.40534 -2.6582
head 1.98777 -2.58799 -2.39449
rclavicle -2.27608e-014 -4.17448e-015
rhumerus -16.1522 12.3916 -75.7021
rradius 36.2823
rwrist -6.45973
rhand -5.98626 8.62137
rfingers 7.12502
rthumb 19.8456 -20.3854
lclavicle -2.27608e-014 -4.17448e-015
lhumerus -22.3045 -20.4346 81.9835
lradius 35.4683
lwrist -7.33452
lhand -30.2134 -11.4327
lfingers 7.12502
lthumb -3.52358 18.5179
rfemur -13.2401 -5.39339 16.1436
rtibia 33.8804
rfoot -15.6392 13.9408
rtoes 2.47356
lfemur -6.77584 1.79341 -12.7377
ltibia 27.9564
lfoot -13.8539 14.7571
ltoes -22.631
